<?xml version="1.0" encoding="UTF-8"?>
<svg id="Layer_1" data-name="Layer 1" xmlns="http://www.w3.org/2000/svg" viewBox="0 0 151.35 20.52">
  <defs>
    <style>
      .cls-1 {
        fill: #065da4;
      }
    </style>
  </defs>
  <path class="cls-1" d="M0,20.2V.25h16.7v3.48H5.24v4.75h10.6v3.48H5.24v4.76h11.51v3.48H0Z"/>
  <path class="cls-1" d="M37.73,5.99c-.1-.79-.51-1.4-1.25-1.83-.73-.43-1.73-.65-2.99-.65-.85,0-1.58.1-2.17.29-.59.19-1.04.46-1.35.79s-.47.72-.47,1.15c-.02.36.08.67.28.94.21.27.49.5.85.69s.78.36,1.26.5.98.26,1.53.36l2.23.43c1.08.19,2.07.45,2.98.78.9.32,1.69.72,2.35,1.2.66.47,1.18,1.03,1.54,1.68.37.64.55,1.38.56,2.21,0,1.22-.39,2.28-1.16,3.17-.76.89-1.86,1.58-3.29,2.08s-3.16.74-5.17.74-3.74-.25-5.22-.74-2.63-1.23-3.46-2.2c-.83-.97-1.26-2.17-1.3-3.61h5.07c.06.67.3,1.23.72,1.67s.99.78,1.71,1c.71.22,1.52.34,2.43.34s1.66-.1,2.32-.31c.66-.21,1.17-.5,1.53-.87s.54-.79.54-1.28c0-.45-.16-.83-.49-1.13s-.8-.56-1.43-.78c-.63-.21-1.39-.41-2.29-.58l-2.7-.55c-2.09-.41-3.74-1.05-4.95-1.92-1.21-.87-1.81-2.04-1.8-3.52,0-1.21.39-2.26,1.2-3.17.81-.9,1.93-1.61,3.35-2.11,1.42-.51,3.03-.76,4.84-.76s3.45.25,4.82.76c1.38.51,2.45,1.21,3.21,2.11.77.9,1.16,1.95,1.19,3.14h-5.02v-.02Z"/>
  <path class="cls-1" d="M49.07,3.73V.25h20.36v3.48h-7.59v16.47h-5.18V3.73h-7.59Z"/>
  <path class="cls-1" d="M77.42,20.2h-5.62L80.36.25h6.75l8.54,19.95h-5.62l-6.21-15.39h-.19l-6.22,15.39h.01ZM77.07,12.36h13.26v3.29h-13.26v-3.29Z"/>
  <path class="cls-1" d="M110.83,20.2h-8.79V.25h8.86c2.49,0,4.64.4,6.44,1.19s3.19,1.94,4.16,3.42,1.46,3.27,1.46,5.34-.48,3.86-1.46,5.36c-.97,1.49-2.37,2.64-4.18,3.44s-3.98,1.2-6.49,1.2ZM107.28,16.59h3.33c1.55,0,2.85-.22,3.92-.67,1.06-.44,1.86-1.14,2.4-2.08s.81-2.15.81-3.64-.27-2.68-.81-3.61c-.54-.94-1.33-1.62-2.39-2.07-1.06-.44-2.36-.66-3.91-.66h-3.34v12.72h-.01Z"/>
  <path class="cls-1" d="M133.12,20.2h-5.62L136.06.25h6.75l8.54,19.95h-5.62l-6.21-15.39h-.19l-6.22,15.39h.01ZM132.77,12.36h13.26v3.29h-13.26v-3.29Z"/>
</svg>