<?xml version="1.0" encoding="UTF-8"?>
<svg id="Layer_1" xmlns="http://www.w3.org/2000/svg" version="1.1" viewBox="0 0 237.17 225.5">
  <!-- Generator: Adobe Illustrator 29.8.2, SVG Export Plug-In . SVG Version: 2.1.1 Build 3)  -->
  <defs>
    <style>
      .st0 {
        fill: none;
        stroke-width: 6px;
      }

      .st0, .st1 {
        stroke: #065da4;
        stroke-miterlimit: 10;
      }

      .st1 {
        fill: #065da4;
      }
    </style>
  </defs>
  <polygon class="st0" points="228.67 3.78 228.62 221.72 9.17 221.6 9.17 4.09 228.67 3.78"/>
  <path class="st1" d="M187.59,158.02c-20.16,22.51-47.6,28.79-47.6,28.79-8.42,1.93-25.93,5.69-45.9-1.75-3.54-1.31-16.97-6.65-28.99-19.88-3.88-4.26-10.95-12.22-15.02-24.9-5.23-16.32-2.18-30.17-.77-36.19,3.66-15.64,11.5-25.81,16.42-32.07,10.2-12.94,21.11-19.84,27.21-23.61,6.69-4.14,16.35-10.01,30.47-13.09,6.21-1.36,21.28-4.47,38.83.77,5.13,1.53,11.62,3.54,18.35,8.98,2.45,1.99,10.48,8.65,14.37,20.4,5.14,15.55-.59,29.11-2.83,34.39-5.04,11.91-12.88,18.82-16.94,22.33-10.78,9.3-21.52,12.59-24.13,13.34-4.79,1.39-17.32,4.85-31.46.47-3.98-1.22-9.04-2.82-13.71-7.47-5-4.97-6.8-10.67-7.5-13.58,0-.01-.03-.22.13-.37.13-.12.28-.1.31-.1,6.37,1.86,28.08,7.3,49.73-3.67,4.07-2.06,15.88-8.62,23.86-21.95,2.82-4.69,8.33-13.89,5.59-23.29-.31-1.08-1.25-4.16-3.85-7.09-1.05-1.19-4.64-4.89-13.18-6.44-14.77-2.68-30.26,3.63-32.78,4.69-21.24,8.89-32.41,24.47-37.28,31.44-6.93,9.92-8.77,16.82-9.49,20.34-.75,3.67-2.06,10.35,0,18.35,2.54,9.86,8.67,15.89,12.71,19.77,9.4,9.02,19.55,12.29,24.79,13.93,5.56,1.72,23.02,6.88,43.87,0,21.61-7.15,32.91-22.64,36.25-27.62.04-.06.4-.72.56-.68.15.06.03.74,0,.96-2.39,14.11-12,24.82-12,24.82h-.03,0Z"/>
</svg>